<svg aria-hidden="true" style="width:0;height:0;position:absolute;overflow:hidden" xmlns="http://www.w3.org/2000/svg"><defs><symbol id="icon-menu" viewBox="0 0 32 33"><path d="M28 13.833H4M28 8.5H4M28 19.167H4M28 24.5H4" stroke-width="2" stroke-linecap="round" stroke-linejoin="round"/></symbol><symbol id="icon-x" viewBox="0 0 32 32"><path stroke-linejoin="round" stroke-linecap="round" stroke-width="2.667" d="M24 8 8 24M8 8l16 16"/></symbol><symbol id="basket" viewBox="0 0 22 22"><path d="M4 13h13.136c1.013 0 1.52 0 1.922-.189a2 2 0 0 0 .858-.768c.232-.38.288-.883.4-1.89l.585-5.265c.035-.307.052-.46.002-.58a.5.5 0 0 0-.22-.246C20.57 4 20.416 4 20.106 4H3.5M1 1h1.248c.265 0 .397 0 .5.05a.5.5 0 0 1 .217.204c.057.1.065.232.082.496l.906 14.5c.017.264.025.396.082.496a.5.5 0 0 0 .216.204c.104.05.236.05.5.05H18M6.5 20.5h.01m8.99 0h.01M7 20.5a.5.5 0 1 1-1 0 .5.5 0 0 1 1 0Zm9 0a.5.5 0 1 1-1 0 .5.5 0 0 1 1 0Z" stroke-width="1.5" stroke-linecap="round" stroke-linejoin="round"/></symbol><symbol id="star" viewBox="0 0 14 14"><path d="M6.049 1.427c.3-.921 1.603-.921 1.902 0l.845 2.6a1 1 0 0 0 .951.692h2.735c.969 0 1.371 1.24.588 1.809l-2.213 1.607a1 1 0 0 0-.363 1.118l.845 2.601c.3.921-.755 1.688-1.539 1.118l-2.212-1.607a1 1 0 0 0-1.176 0L4.2 12.972c-.784.57-1.838-.197-1.539-1.118l.845-2.6a1 1 0 0 0-.363-1.119L.93 6.528c-.783-.57-.38-1.81.588-1.81h2.735a1 1 0 0 0 .95-.69l.846-2.6Z"/></symbol><symbol id="heart" viewBox="0 0 32 32"><path opacity=".5" stroke="#f8f8f8" style="stroke:var(--color1,#f8f8f8)" stroke-linejoin="round" stroke-linecap="round" stroke-width="2.909" d="M27.787 6.147a7.345 7.345 0 0 0-5.187-2.15 7.33 7.33 0 0 0-5.187 2.15L16 7.56l-1.413-1.413a7.333 7.333 0 0 0-10.374 0 7.333 7.333 0 0 0 0 10.374L16 28.308l11.787-11.787a7.345 7.345 0 0 0 2.15-5.187 7.33 7.33 0 0 0-2.15-5.187v0z"/></symbol><symbol id="search" viewBox="0 0 32 32"><path d="M30.565 28.436 25 22.916a13.5 13.5 0 1 0-2.086 2.086l5.52 5.52a1.483 1.483 0 0 0 1.065.443 1.504 1.504 0 0 0 1.065-.443 1.503 1.503 0 0 0 0-2.085zM14.5 25.001a10.494 10.494 0 0 1-9.7-6.482A10.5 10.5 0 1 1 14.501 25z"/></symbol><symbol id="cook-hat" viewBox="0 0 37 32"><path fill="#9bb537" style="fill:var(--color1,#9bb537)" d="M7.325 12.723h23.133v17.735H7.325V12.723z"/><path fill="#9bb537" style="fill:var(--color1,#9bb537)" d="M16.578 11.373a8.289 8.289 0 1 1-16.578 0 8.289 8.289 0 1 1 16.578 0z"/><path fill="#9bb537" style="fill:var(--color1,#9bb537)" d="M26.988 8.289a8.289 8.289 0 1 1-16.578 0 8.289 8.289 0 1 1 16.578 0z"/><path fill="#9bb537" style="fill:var(--color1,#9bb537)" d="M37.398 11.373a8.289 8.289 0 1 1-16.578 0 8.289 8.289 0 1 1 16.578 0z"/><path fill="#f8f8f8" style="fill:var(--color2,#f8f8f8)" d="M7.325 29.301h23.133v2.036c0 .366-.324.663-.723.663H8.048c-.399 0-.723-.297-.723-.663v-2.036zM14.265 10.36c0-.611.432-1.107.964-1.107s.964.495.964 1.107v5.112c0 .611-.432 1.107-.964 1.107s-.964-.495-.964-1.107V10.36zM17.349 10.36c0-.611.604-1.107 1.349-1.107s1.349.495 1.349 1.107v5.112c0 .611-.604 1.107-1.349 1.107s-1.349-.495-1.349-1.107V10.36zM21.205 10.36c0-.611.432-1.107.964-1.107s.964.495.964 1.107v5.112c0 .611-.432 1.107-.964 1.107s-.964-.495-.964-1.107V10.36z"/><path fill="#050505" style="fill:var(--color3,#050505)" d="M28.184 3.131c.289-.03.581-.045.878-.045A8.333 8.333 0 0 1 37 8.832c-.289.03-.581.045-.878.045a8.333 8.333 0 0 1-7.938-5.746z"/></symbol></defs><symbol id="spinner" viewBox="0 0 24 24"><path d="M12 0C5.373 0 0 5.373 0 12s5.373 12 12 12 12-5.373 12-12S18.627 0 12 0z" fill="#fff"/><path d="M2 12C2 6.486 6.486 2 12 2v1.5c-4.523 0-8.5 3.977-8.5 8.5H2zm19.721-1.638a.872.872 0 0 0-.998-.164l-2.104.701c-.469.156-.81.57-.901 1.065l-.729 4.978c-.058.394.082.796.367 1.078.128.139.288.243.468.301l2.225.593c.151.04.303.06.454.06.316 0 .625-.118.864-.34l2.239-1.58a.97.97 0 0 0 .235-1.356l-1.207-1.692a1.004 1.004 0 0 1-.166-1.056l.518-.938a.994.994 0 0 0-.166-1.215l-1.833-1.679zm-4.653-5.06a.665.665 0 0 1 .492-.224h4.5a.5.5 0 0 1 .5.5v4.5a.501.501 0 0 1-.224.416l-1.679 1.208a.967.967 0 0 1-1.355-.234l-.9-1.26a.998.998 0 0 0-1.286-.263l-.897.51a.993.993 0 0 1-1.213-.167l-.938-.519c-.301-.166-.71-.03-.924.271l-1.68 2.396c-.224.318-.146.764.177 1.015l2.224 1.58a.973.973 0 0 0 1.389-.243l.703-.999a1.006 1.006 0 0 0-.163-1.287l-1.261-.898a.99.99 0 0 1-.263-1.285l.509-.897z" fill="#1c1c1c"/></symbol><symbol id="icon-arrow-up" viewBox="0 0 32 32"><path d="M13.472 28.449v2.992a.35.35 0 1 1-.702 0v-2.992a.35.35 0 1 1 .702 0zM27.284 11.464c0 .212-.08.424-.242.585l-3.367 3.367a.83.83 0 0 1-1.17 0l-3.318-3.318v9.444a.35.35 0 1 1-.702 0V11.25a.352.352 0 0 1 .6-.249l3.918 3.918a.125.125 0 0 0 .177 0l3.367-3.367a.125.125 0 0 0 0-.177L16.086.915a.124.124 0 0 0-.093-.034c-.053-.001-.09.004-.12.034L5.412 11.375c-.063.064-.065.113 0 .177l3.367 3.367a.125.125 0 0 0 .177 0l3.918-3.918a.351.351 0 0 1 .6.249v14.1a.35.35 0 1 1-.702 0V12.098l-3.318 3.318a.83.83 0 0 1-1.17 0l-3.367-3.367a.846.846 0 0 1 0-1.17L15.377.419a.817.817 0 0 1 .616-.239.799.799 0 0 1 .59.239l10.461 10.46a.822.822 0 0 1 .243.585zM19.187 24.464v2.914a.35.35 0 1 1-.702 0v-2.914a.35.35 0 1 1 .702 0z"/><path d="M16.329 17.203v12.022a.35.35 0 1 1-.702 0V17.203a.35.35 0 1 1 .702 0z"/></symbol><symbol id="rate-star" viewBox="0 0 32 32"><path d="M15.357 1.219a.727.727 0 0 1 1.286 0l4.525 8.576a.727.727 0 0 0 .519.377l9.555 1.653c.576.1.805.804.398 1.223l-6.758 6.954a.728.728 0 0 0-.198.61l1.38 9.598a.727.727 0 0 1-1.041.756l-8.702-4.279a.731.731 0 0 0-.642 0l-8.702 4.279a.727.727 0 0 1-1.041-.756l1.38-9.598a.727.727 0 0 0-.198-.61L.36 13.048a.727.727 0 0 1 .398-1.224l9.555-1.653a.727.727 0 0 0 .519-.377l4.525-8.576z"/></symbol></svg>