<svg aria-hidden="true" style="position: absolute; width: 0; height: 0; overflow: hidden;" version="1.1" xmlns="http://www.w3.org/2000/svg" xmlns:xlink="http://www.w3.org/1999/xlink">
<defs>
<symbol id="star" viewBox="0 0 14 14">
<path d="M6.04894 1.42705C6.3483 0.505742 7.6517 0.505741 7.95106 1.42705L8.79611 4.02786C8.92999 4.43989 9.31394 4.71885 9.74717 4.71885H12.4818C13.4505 4.71885 13.8533 5.95846 13.0696 6.52786L10.8572 8.13525C10.5067 8.3899 10.3601 8.84127 10.494 9.25329L11.339 11.8541C11.6384 12.7754 10.5839 13.5415 9.80017 12.9721L7.58779 11.3647C7.2373 11.1101 6.7627 11.1101 6.41222 11.3647L4.19983 12.9721C3.41612 13.5415 2.36164 12.7754 2.66099 11.8541L3.50604 9.25329C3.63992 8.84127 3.49326 8.3899 3.14277 8.13525L0.930391 6.52787C0.146677 5.95846 0.549452 4.71885 1.51818 4.71885H4.25283C4.68606 4.71885 5.07001 4.43989 5.20389 4.02786L6.04894 1.42705Z"/>
</symbol>
<symbol id="heart" viewBox="0 0 32 32">
<path opacity="0.5" stroke="#f8f8f8" style="stroke: var(--color1, #f8f8f8)" stroke-linejoin="round" stroke-linecap="round" stroke-miterlimit="4" stroke-width="2.9091" d="M27.787 6.147c-0.681-0.681-1.49-1.222-2.38-1.591s-1.844-0.559-2.807-0.559-1.917 0.19-2.807 0.559c-0.89 0.369-1.698 0.909-2.38 1.591l-1.413 1.413-1.413-1.413c-1.376-1.376-3.241-2.148-5.187-2.148s-3.811 0.773-5.187 2.148c-1.376 1.376-2.148 3.241-2.148 5.187s0.773 3.811 2.148 5.187l11.787 11.787 11.787-11.787c0.681-0.681 1.222-1.49 1.591-2.38s0.559-1.844 0.559-2.807c0-0.963-0.19-1.917-0.559-2.807s-0.909-1.699-1.591-2.38v0z"></path>
</symbol>
<symbol id="search" viewBox="0 0 32 32">
<path d="M30.565 28.436l-5.565-5.52c2.16-2.693 3.206-6.112 2.923-9.553s-1.874-6.643-4.445-8.947-5.928-3.536-9.379-3.441c-3.451 0.094-6.735 1.508-9.177 3.949s-3.855 5.725-3.949 9.177c-0.094 3.451 1.137 6.808 3.441 9.379s5.506 4.162 8.947 4.445c3.441 0.283 6.86-0.763 9.553-2.923l5.52 5.52c0.139 0.141 0.305 0.252 0.488 0.328s0.379 0.115 0.577 0.115c0.198 0 0.394-0.039 0.577-0.115s0.349-0.188 0.488-0.328c0.27-0.28 0.421-0.654 0.421-1.043s-0.151-0.763-0.421-1.042zM14.5 25.001c-2.077 0-4.107-0.616-5.833-1.77s-3.073-2.794-3.867-4.712c-0.795-1.919-1.003-4.030-0.598-6.067s1.405-3.908 2.874-5.376c1.468-1.468 3.339-2.468 5.376-2.874s4.148-0.197 6.067 0.598c1.919 0.795 3.559 2.141 4.712 3.867s1.77 3.757 1.77 5.833c0 2.785-1.106 5.455-3.075 7.425s-4.64 3.075-7.425 3.075z"></path>
</symbol>
   <symbol id="icon-arrow-up" viewBox="0 0 32 32">
            <path
                d="M13.472 28.449v2.992c0 0.194-0.157 0.351-0.351 0.351s-0.351-0.157-0.351-0.351v-2.992c0-0.194 0.157-0.351 0.351-0.351s0.351 0.157 0.351 0.351z">
            </path>
            <path
                d="M27.284 11.464c0 0.212-0.080 0.424-0.242 0.585l-3.367 3.367c-0.323 0.322-0.848 0.322-1.17 0l-3.318-3.318v9.444c0 0.194-0.157 0.351-0.351 0.351s-0.351-0.157-0.351-0.351v-10.292c0-0.142 0.085-0.27 0.217-0.325s0.282-0.024 0.383 0.076l3.918 3.918c0.049 0.049 0.128 0.049 0.177-0l3.367-3.367c0.049-0.049 0.049-0.128 0-0.177l-10.461-10.46c-0.029-0.029-0.067-0.035-0.093-0.034-0.053-0.001-0.090 0.004-0.12 0.034l-10.461 10.46c-0.063 0.064-0.065 0.113 0 0.177l3.367 3.367c0.049 0.049 0.128 0.049 0.177 0l3.918-3.918c0.1-0.1 0.252-0.131 0.383-0.076s0.217 0.183 0.217 0.325v14.1c0 0.194-0.157 0.351-0.351 0.351s-0.351-0.157-0.351-0.351v-13.252l-3.318 3.318c-0.323 0.322-0.848 0.322-1.17 0l-3.367-3.367c-0.313-0.313-0.313-0.858 0-1.17l10.46-10.46c0.163-0.163 0.382-0.248 0.616-0.239 0.208-0.009 0.427 0.076 0.59 0.239l10.461 10.46c0.162 0.161 0.243 0.373 0.243 0.585z">
            </path>
            <path
                d="M19.187 24.464v2.914c0 0.194-0.157 0.351-0.351 0.351s-0.351-0.157-0.351-0.351v-2.914c0-0.194 0.157-0.351 0.351-0.351s0.351 0.157 0.351 0.351z">
            </path>
            <path
                d="M16.329 17.203v12.022c0 0.194-0.157 0.351-0.351 0.351s-0.351-0.157-0.351-0.351v-12.022c0-0.194 0.157-0.351 0.351-0.351s0.351 0.157 0.351 0.351z">
            </path>
        </symbol>
</defs>
</svg>
