<svg aria-hidden="true" style="position: absolute; width: 0; height: 0; overflow: hidden;" version="1.1" xmlns="http://www.w3.org/2000/svg" xmlns:xlink="http://www.w3.org/1999/xlink">
<defs>
<symbol id="icon-menu" viewBox="0 0 32 32">
<path d="M4 24v-2.667h24v2.667h-24zM4 17.333v-2.667h24v2.667h-24zM4 10.667v-2.667h24v2.667h-24z"></path>
</symbol>
<symbol id="icon-x" viewBox="0 0 32 32">
<path fill="none" stroke="#fff" style="stroke: var(--color1, #fff)" stroke-linejoin="round" stroke-linecap="round" stroke-miterlimit="4" stroke-width="2.6667" d="M24 8l-16 16"></path>
<path fill="none" stroke="#fff" style="stroke: var(--color1, #fff)" stroke-linejoin="round" stroke-linecap="round" stroke-miterlimit="4" stroke-width="2.6667" d="M8 8l16 16"></path>
</symbol>
<symbol id="icon-shopping-cart-03" viewBox="0 0 32 32">
<path  d="M6.667 18.667h17.514c1.35 0 2.026 0 2.563-0.252 0.474-0.222 0.871-0.578 1.144-1.024 0.31-0.507 0.384-1.178 0.533-2.52l0.78-7.020c0.046-0.41 0.068-0.615 0.002-0.774-0.058-0.139-0.161-0.255-0.293-0.328-0.15-0.083-0.357-0.083-0.769-0.083h-22.141M2.667 2.667h1.665c0.353 0 0.529 0 0.667 0.067 0.122 0.059 0.222 0.154 0.289 0.271 0.076 0.134 0.087 0.31 0.109 0.662l1.208 19.333c0.022 0.352 0.033 0.528 0.109 0.662 0.067 0.118 0.167 0.212 0.289 0.271 0.138 0.067 0.314 0.067 0.667 0.067h17.665M10 28.667h0.013M22 28.667h0.013M10.667 28.667c0 0.368-0.298 0.667-0.667 0.667s-0.667-0.299-0.667-0.667c0-0.368 0.298-0.667 0.667-0.667s0.667 0.299 0.667 0.667zM22.667 28.667c0 0.368-0.299 0.667-0.667 0.667s-0.667-0.299-0.667-0.667c0-0.368 0.299-0.667 0.667-0.667s0.667 0.299 0.667 0.667z"></path>
</symbol>
</defs>
</svg>
